<?xml version="1.0" encoding="UTF-8"?>
<svg id="Layer_2" data-name="Layer 2" xmlns="http://www.w3.org/2000/svg" viewBox="0 0 384 469.33">
  <defs>
    <style>
      .cls-1 {
        fill: #a35da2;
      }
    </style>
  </defs>
  <g id="Layer_1-2" data-name="Layer 1">
    <g id="_32_Notification_Alarm_Alert" data-name=" 32 Notification Alarm Alert">
      <path class="cls-1" d="M377.81,283.52l-36.48-36.27v-55.25c-.09-74.17-54.59-137.03-128-147.63V0h-42.67v44.37C97.26,54.97,42.75,117.83,42.67,192v55.25l-36.48,36.27C2.19,287.55-.03,293,0,298.67v64c0,11.78,9.55,21.33,21.33,21.33h85.33c0,47.13,38.21,85.33,85.33,85.33s85.33-38.21,85.33-85.33h85.33c11.78,0,21.33-9.55,21.33-21.33v-64c.03-5.67-2.19-11.12-6.19-15.15ZM192,426.67c-23.56,0-42.67-19.1-42.67-42.67h85.33c0,23.56-19.1,42.67-42.67,42.67ZM341.33,341.33H42.67v-33.92l36.48-36.27c3.99-4.03,6.22-9.48,6.19-15.15v-64c0-58.91,47.76-106.67,106.67-106.67s106.67,47.76,106.67,106.67v64c-.03,5.67,2.19,11.12,6.19,15.15l36.48,36.27v33.92Z"/>
    </g>
  </g>
</svg>